<svg xmlns="http://www.w3.org/2000/svg" width="390" height="844" viewBox="0 0 390 844">
  <defs>
    <filter id="shadow" x="-20%" y="-20%" width="140%" height="140%">
      <feDropShadow dx="0" dy="8" stdDeviation="10" flood-color="#07131d" flood-opacity=".14"/>
    </filter>
    <linearGradient id="orangeGrad" x1="0" x2="1" y1="0" y2="1">
      <stop offset="0%" stop-color="#ff6a20"/>
      <stop offset="100%" stop-color="#e93708"/>
    </linearGradient>
    <linearGradient id="darkGrad" x1="0" x2="1" y1="0" y2="1">
      <stop offset="0%" stop-color="#0e1f2b"/>
      <stop offset="100%" stop-color="#07131d"/>
    </linearGradient>
  </defs>
  <style>
    text{font-family:"Microsoft YaHei","PingFang SC",Arial,sans-serif;dominant-baseline:hanging}
    .title{font-weight:800;fill:#07131d}
    .sub{fill:#647184}
    .white{fill:#fff}
    .muted{fill:#647184}
    .small{font-size:14px}
    .label{font-size:18px;font-weight:700;fill:#07131d}
    .btnText{font-size:18px;font-weight:800}
    .score{font-size:92px;font-weight:900;fill:#ff4d18}
  </style>
  
  <rect width="390" height="844" rx="0" fill="#f3f6fa"/>
  <rect y="0" width="390" height="88" fill="#07131d"/>
  <text x="195" y="45" text-anchor="middle" font-size="17" font-weight="800" fill="#fff">登录</text>
  <circle cx="315" cy="58" r="17" fill="#111c27" stroke="#3b4a58"/>
  <circle cx="350" cy="58" r="17" fill="#111c27" stroke="#3b4a58"/>
  <text x="27" y="48" font-size="30" fill="#fff">‹</text>
  
  <rect x="0" y="88" width="390" height="420" fill="url(#orangeGrad)"/>
  <path d="M0 120 L390 340" stroke="#ffb34d" stroke-opacity=".22" stroke-width="22"/>
  <path d="M0 230 L390 150" stroke="#fff" stroke-opacity=".22" stroke-width="8"/>
  <circle cx="195" cy="238" r="72" fill="#fff" opacity=".94"/>
  <path d="M153 232 C175 176 237 178 238 232 C222 206 179 205 153 232Z" fill="#07131d"/>
  <circle cx="231" cy="218" r="13" fill="#07131d"/>
  <circle cx="238" cy="260" r="28" fill="#ff4d18"/>
  <text x="195" y="334" text-anchor="middle" font-size="34" font-weight="900" fill="#fff">赛小蜂篮球</text>
  <text x="195" y="384" text-anchor="middle" font-size="15" font-weight="700" fill="#ffd956">热爱上场 · 蜂行无畏</text>
  <rect x="24" y="512" width="342" height="250" rx="26" fill="#fff" filter="url(#shadow)"/>
  <circle cx="195" cy="508" r="24" fill="#07131d" stroke="#fff" stroke-width="5"/>
  <rect x="54" y="552" width="282" height="54" rx="8" fill="url(#orangeGrad)"/>
  <text x="195" y="569" text-anchor="middle" class="btnText" fill="#fff">微信一键登录</text>
  <rect x="54" y="622" width="282" height="54" rx="8" fill="#fff"/>
  <text x="195" y="639" text-anchor="middle" class="btnText" fill="#07131d">游客体验</text>
  <rect x="54" y="622" width="282" height="54" rx="8" fill="none" stroke="#dbe3ee"/>
  <circle cx="96" cy="696" r="8" fill="#ff4d18"/>
  <text x="110" y="687" font-size="12" fill="#647184">登录即代表同意 用户协议 和 隐私政策</text>

  <rect y="786" width="390" height="58" fill="#fff"/>
  <line x1="0" y1="786" x2="390" y2="786" stroke="#dbe3ee"/>
  <text x="53" y="809" text-anchor="middle" font-size="13" fill="#ff4d18">首页</text>
  <text x="145" y="809" text-anchor="middle" font-size="13" fill="#647184">赛事</text>
  <text x="240" y="809" text-anchor="middle" font-size="13" fill="#647184">球员</text>
  <text x="334" y="809" text-anchor="middle" font-size="13" fill="#647184">我的</text>
  <rect x="143" y="831" width="104" height="4" rx="2" fill="#111"/>
  
</svg>