<svg xmlns="http://www.w3.org/2000/svg" width="844" height="390" viewBox="0 0 844 390">
  <defs>
    <filter id="shadow" x="-20%" y="-20%" width="140%" height="140%">
      <feDropShadow dx="0" dy="8" stdDeviation="10" flood-color="#07131d" flood-opacity=".14"/>
    </filter>
    <linearGradient id="orangeGrad" x1="0" x2="1" y1="0" y2="1">
      <stop offset="0%" stop-color="#ff6a20"/>
      <stop offset="100%" stop-color="#e93708"/>
    </linearGradient>
    <linearGradient id="darkGrad" x1="0" x2="1" y1="0" y2="1">
      <stop offset="0%" stop-color="#0e1f2b"/>
      <stop offset="100%" stop-color="#07131d"/>
    </linearGradient>
  </defs>
  <style>
    text{font-family:"Microsoft YaHei","PingFang SC",Arial,sans-serif;dominant-baseline:hanging}
    .title{font-weight:800;fill:#07131d}
    .sub{fill:#647184}
    .white{fill:#fff}
    .muted{fill:#647184}
    .small{font-size:14px}
    .label{font-size:18px;font-weight:700;fill:#07131d}
    .btnText{font-size:18px;font-weight:800}
    .score{font-size:92px;font-weight:900;fill:#ff4d18}
  </style>
  
  <rect width="844" height="390" fill="#07131d"/>
  <rect y="0" width="844" height="56" fill="#06111a"/>
  <text x="422" y="18" text-anchor="middle" font-size="18" font-weight="800" fill="#fff">比赛计分</text>
  <text x="20" y="84" font-size="20" font-weight="900" fill="#fff">赛小蜂篮球计分盘</text>
  <rect x="598" y="76" width="118" height="30" rx="15" fill="#063f36"/><text x="657" y="83" text-anchor="middle" font-size="14" font-weight="800" fill="#00c68a">MC 音效已解锁</text>
  <rect x="732" y="70" width="92" height="42" rx="8" fill="#e6360a"/>
  <text x="778" y="81" text-anchor="middle" class="btnText" fill="#fff">结束比赛</text>
  <rect x="20" y="126" width="804" height="76" rx="12" fill="#26333d"/>
  <text x="40" y="142" font-size="28" font-weight="900" fill="#ffd956">第 1 / 4 节</text>
  <text x="40" y="176" font-size="16" fill="#d5dce5">倒计时 · 10 分钟</text>
  <text x="442" y="135" text-anchor="middle" font-size="52" font-weight="900" fill="#fff">10:00</text>
  <rect x="586" y="140" width="76" height="42" rx="8" fill="#ffd956"/>
  <text x="624" y="151" text-anchor="middle" class="btnText" fill="#07131d">开始</text>
  <rect x="674" y="140" width="76" height="42" rx="8" fill="#fff"/>
  <text x="712" y="151" text-anchor="middle" class="btnText" fill="#07131d">复位</text>
  <rect x="762" y="140" width="54" height="42" rx="8" fill="#fff"/>
  <text x="789" y="151" text-anchor="middle" class="btnText" fill="#07131d">下节</text>
  <rect x="16" y="214" width="340" height="144" rx="10" fill="#fff"/>
  <text x="186" y="224" text-anchor="middle" font-size="22" font-weight="900" fill="#07131d">主队</text>
  <text x="186" y="252" text-anchor="middle" class="score">5</text>
  <text x="38" y="315" font-size="18" font-weight="800" fill="#07131d">犯规 0</text>
  <text x="192" y="315" font-size="18" font-weight="800" fill="#07131d">暂停 0</text>
  <rect x="36" y="338" width="92" height="34" rx="8" fill="#ff4d18"/>
  <text x="82" y="345" text-anchor="middle" class="btnText" fill="#fff">+1</text>
  <rect x="140" y="338" width="92" height="34" rx="8" fill="#ff4d18"/>
  <text x="186" y="345" text-anchor="middle" class="btnText" fill="#fff">+2</text>
  <rect x="244" y="338" width="92" height="34" rx="8" fill="#e6360a"/>
  <text x="290" y="345" text-anchor="middle" class="btnText" fill="#fff">长按+3</text>
  <text x="422" y="222" text-anchor="middle" font-size="44" font-weight="900" fill="#fff">VS</text>
  <rect x="384" y="270" width="76" height="34" rx="8" fill="#fff"/>
  <text x="422" y="277" text-anchor="middle" class="btnText" fill="#07131d">换边</text>
  <rect x="384" y="312" width="76" height="34" rx="8" fill="#ffd956"/>
  <text x="422" y="319" text-anchor="middle" class="btnText" fill="#07131d">撤销</text>
  <rect x="488" y="214" width="340" height="144" rx="10" fill="#fff"/>
  <text x="658" y="224" text-anchor="middle" font-size="22" font-weight="900" fill="#07131d">客队</text>
  <text x="658" y="252" text-anchor="middle" class="score">2</text>
  <text x="510" y="315" font-size="18" font-weight="800" fill="#07131d">犯规 0</text>
  <text x="664" y="315" font-size="18" font-weight="800" fill="#07131d">暂停 0</text>
  <rect x="508" y="338" width="92" height="34" rx="8" fill="#ff4d18"/>
  <text x="554" y="345" text-anchor="middle" class="btnText" fill="#fff">+1</text>
  <rect x="612" y="338" width="92" height="34" rx="8" fill="#ff4d18"/>
  <text x="658" y="345" text-anchor="middle" class="btnText" fill="#fff">+2</text>
  <rect x="716" y="338" width="92" height="34" rx="8" fill="#e6360a"/>
  <text x="762" y="345" text-anchor="middle" class="btnText" fill="#fff">长按+3</text>
  <rect x="0" y="205" width="42" height="110" rx="14" fill="#132536" stroke="#30475b"/>
  <circle cx="21" cy="234" r="8" fill="#00c68a"/>
  <text x="21" y="254" text-anchor="middle" font-size="17" font-weight="900" fill="#ffd956">MC</text>
  <rect x="16" y="364" width="812" height="22" rx="11" fill="#1d2b38"/>
  <text x="34" y="367" font-size="16" fill="#d5dce5">最近记录</text>
  <text x="772" y="367" text-anchor="middle" font-size="16" fill="#d5dce5">主队 +2</text>

</svg>