<svg xmlns="http://www.w3.org/2000/svg" width="844" height="390" viewBox="0 0 844 390">
  <defs>
    <filter id="shadow" x="-20%" y="-20%" width="140%" height="140%">
      <feDropShadow dx="0" dy="8" stdDeviation="10" flood-color="#07131d" flood-opacity=".14"/>
    </filter>
    <linearGradient id="orangeGrad" x1="0" x2="1" y1="0" y2="1">
      <stop offset="0%" stop-color="#ff6a20"/>
      <stop offset="100%" stop-color="#e93708"/>
    </linearGradient>
    <linearGradient id="darkGrad" x1="0" x2="1" y1="0" y2="1">
      <stop offset="0%" stop-color="#0e1f2b"/>
      <stop offset="100%" stop-color="#07131d"/>
    </linearGradient>
  </defs>
  <style>
    text{font-family:"Microsoft YaHei","PingFang SC",Arial,sans-serif;dominant-baseline:hanging}
    .title{font-weight:800;fill:#07131d}
    .sub{fill:#647184}
    .white{fill:#fff}
    .muted{fill:#647184}
    .small{font-size:14px}
    .label{font-size:18px;font-weight:700;fill:#07131d}
    .btnText{font-size:18px;font-weight:800}
    .score{font-size:92px;font-weight:900;fill:#ff4d18}
  </style>
  
  <rect width="844" height="390" fill="#07131d"/>
  <rect x="16" y="20" width="340" height="144" rx="10" fill="#fff" opacity=".55"/>
  <rect x="488" y="20" width="340" height="144" rx="10" fill="#fff" opacity=".55"/>
  <rect x="0" y="0" width="250" height="390" fill="#101f2c" filter="url(#shadow)"/>
  <text x="22" y="24" font-size="22" font-weight="900" fill="#fff">MC 控制台</text>
  <rect x="208" y="18" width="30" height="30" rx="8" fill="#334155"/>
  <text x="223" y="23" text-anchor="middle" font-size="22" font-weight="800" fill="#fff">×</text>
  <text x="22" y="68" font-size="15" font-weight="800" fill="#cbd5e1">音效</text>
  <rect x="22" y="94" width="88" height="36" rx="8" fill="#ffd956"/>
  <text x="66" y="102" text-anchor="middle" class="btnText" fill="#07131d">欢呼</text>
  <rect x="120" y="94" width="88" height="36" rx="8" fill="#203244"/>
  <text x="164" y="102" text-anchor="middle" class="btnText" fill="#fff">投篮未进</text>
  <rect x="22" y="142" width="186" height="38" rx="8" fill="#203244"/>
  <text x="115" y="151" text-anchor="middle" class="btnText" fill="#fff">2分有效</text>
  <rect x="22" y="190" width="186" height="38" rx="8" fill="#203244"/>
  <text x="115" y="199" text-anchor="middle" class="btnText" fill="#fff">休息音乐</text>
  <text x="22" y="248" font-size="15" font-weight="800" fill="#cbd5e1">循环音乐</text>
  <rect x="22" y="274" width="88" height="42" rx="8" fill="#ffd956"/>
  <text x="66" y="285" text-anchor="middle" class="btnText" fill="#07131d">进攻</text>
  <rect x="120" y="274" width="88" height="42" rx="8" fill="#203244"/>
  <text x="164" y="285" text-anchor="middle" class="btnText" fill="#fff">防守</text>
  <text x="270" y="246" text-anchor="middle" font-size="40" font-weight="900" fill="#fff">VS</text>
  <rect x="358" y="214" width="128" height="82" rx="14" fill="#101f2c"/>
  <text x="422" y="236" text-anchor="middle" font-size="18" font-weight="900" fill="#fff">播报比分</text>
  <text x="422" y="264" text-anchor="middle" font-size="13" fill="#cbd5e1">使用赛小瑜</text>

</svg>