<svg xmlns="http://www.w3.org/2000/svg" width="390" height="844" viewBox="0 0 390 844">
  <defs>
    <filter id="shadow" x="-20%" y="-20%" width="140%" height="140%">
      <feDropShadow dx="0" dy="8" stdDeviation="10" flood-color="#07131d" flood-opacity=".14"/>
    </filter>
    <linearGradient id="orangeGrad" x1="0" x2="1" y1="0" y2="1">
      <stop offset="0%" stop-color="#ff6a20"/>
      <stop offset="100%" stop-color="#e93708"/>
    </linearGradient>
    <linearGradient id="darkGrad" x1="0" x2="1" y1="0" y2="1">
      <stop offset="0%" stop-color="#0e1f2b"/>
      <stop offset="100%" stop-color="#07131d"/>
    </linearGradient>
  </defs>
  <style>
    text{font-family:"Microsoft YaHei","PingFang SC",Arial,sans-serif;dominant-baseline:hanging}
    .title{font-weight:800;fill:#07131d}
    .sub{fill:#647184}
    .white{fill:#fff}
    .muted{fill:#647184}
    .small{font-size:14px}
    .label{font-size:18px;font-weight:700;fill:#07131d}
    .btnText{font-size:18px;font-weight:800}
    .score{font-size:92px;font-weight:900;fill:#ff4d18}
  </style>
  
  <rect width="390" height="844" rx="0" fill="#f3f6fa"/>
  <rect y="0" width="390" height="88" fill="#07131d"/>
  <text x="195" y="45" text-anchor="middle" font-size="17" font-weight="800" fill="#fff">我的</text>
  <circle cx="315" cy="58" r="17" fill="#111c27" stroke="#3b4a58"/>
  <circle cx="350" cy="58" r="17" fill="#111c27" stroke="#3b4a58"/>
  <text x="27" y="48" font-size="30" fill="#fff">‹</text>
  
  <rect x="16" y="112" width="358" height="154" rx="8" fill="url(#darkGrad)"/>
  <circle cx="74" cy="178" r="34" fill="#fff"/>
  <circle cx="74" cy="166" r="12" fill="#cbd5e1"/>
  <path d="M52 204 C58 185 91 185 96 204Z" fill="#cbd5e1"/>
  <text x="128" y="138" font-size="14" font-weight="800" fill="#ffd956">我的账号</text>
  <text x="128" y="164" font-size="28" font-weight="900" fill="#fff">大头</text>
  <text x="128" y="202" font-size="14" fill="#cbd5e1">已登录 · 173****6663</text>
  <rect x="32" y="220" width="326" height="34" rx="8" fill="#303b47"/>
  <text x="195" y="227" text-anchor="middle" class="btnText" fill="#fff">退出登录</text>
  <rect x="16" y="286" width="358" height="96" rx="8" fill="#fff" filter="url(#shadow)"/>
  <text x="32" y="306" font-size="18" font-weight="900" fill="#07131d">会员兑换</text>
  <text x="318" y="306" font-size="13" fill="#00c68a">已解锁</text>
  <rect x="32" y="336" width="326" height="36" rx="6" fill="#f8fafc" stroke="#dbe3ee"/>
  <text x="46" y="345" font-size="16" fill="#647184">输入会员兑换码</text>
  <rect x="16" y="398" width="358" height="74" rx="8" fill="#fff" filter="url(#shadow)"/>
  <text x="32" y="418" font-size="18" font-weight="900" fill="#07131d">MC 音效设置</text>
  <text x="302" y="418" font-size="13" fill="#647184">快捷键 / 本机音效</text>
  <text x="32" y="446" font-size="13" fill="#647184">管理 2分、3分音效、进攻防守音乐和 6 键快捷键。</text>
  <rect x="16" y="490" width="358" height="164" rx="8" fill="#fff" filter="url(#shadow)"/>
  <text x="32" y="510" font-size="18" font-weight="900" fill="#07131d">意见反馈</text>
  <rect x="32" y="548" width="100" height="34" rx="6" fill="#ff4d18"/><text x="82" y="556" text-anchor="middle" font-size="14" font-weight="800" fill="#fff">功能建议</text>
  <rect x="144" y="548" width="100" height="34" rx="6" fill="#fff" stroke="#dbe3ee"/><text x="194" y="556" text-anchor="middle" font-size="14" font-weight="800">问题反馈</text>
  <rect x="256" y="548" width="100" height="34" rx="6" fill="#fff" stroke="#dbe3ee"/><text x="306" y="556" text-anchor="middle" font-size="14" font-weight="800">赛事合作</text>
  <rect x="32" y="596" width="326" height="42" rx="6" fill="#f8fafc" stroke="#dbe3ee"/>
  <text x="44" y="610" font-size="13" fill="#647184">告诉我们哪里不好用，或者希望增加什么功能</text>

  <rect y="786" width="390" height="58" fill="#fff"/>
  <line x1="0" y1="786" x2="390" y2="786" stroke="#dbe3ee"/>
  <text x="53" y="809" text-anchor="middle" font-size="13" fill="#ff4d18">首页</text>
  <text x="145" y="809" text-anchor="middle" font-size="13" fill="#647184">赛事</text>
  <text x="240" y="809" text-anchor="middle" font-size="13" fill="#647184">球员</text>
  <text x="334" y="809" text-anchor="middle" font-size="13" fill="#647184">我的</text>
  <rect x="143" y="831" width="104" height="4" rx="2" fill="#111"/>
  
</svg>