<svg xmlns="http://www.w3.org/2000/svg" width="390" height="844" viewBox="0 0 390 844">
  <defs>
    <filter id="shadow" x="-20%" y="-20%" width="140%" height="140%">
      <feDropShadow dx="0" dy="8" stdDeviation="10" flood-color="#07131d" flood-opacity=".14"/>
    </filter>
    <linearGradient id="orangeGrad" x1="0" x2="1" y1="0" y2="1">
      <stop offset="0%" stop-color="#ff6a20"/>
      <stop offset="100%" stop-color="#e93708"/>
    </linearGradient>
    <linearGradient id="darkGrad" x1="0" x2="1" y1="0" y2="1">
      <stop offset="0%" stop-color="#0e1f2b"/>
      <stop offset="100%" stop-color="#07131d"/>
    </linearGradient>
  </defs>
  <style>
    text{font-family:"Microsoft YaHei","PingFang SC",Arial,sans-serif;dominant-baseline:hanging}
    .title{font-weight:800;fill:#07131d}
    .sub{fill:#647184}
    .white{fill:#fff}
    .muted{fill:#647184}
    .small{font-size:14px}
    .label{font-size:18px;font-weight:700;fill:#07131d}
    .btnText{font-size:18px;font-weight:800}
    .score{font-size:92px;font-weight:900;fill:#ff4d18}
  </style>
  
  <rect width="390" height="844" rx="0" fill="#f3f6fa"/>
  <rect y="0" width="390" height="88" fill="#07131d"/>
  <text x="195" y="45" text-anchor="middle" font-size="17" font-weight="800" fill="#fff">音效设置</text>
  <circle cx="315" cy="58" r="17" fill="#111c27" stroke="#3b4a58"/>
  <circle cx="350" cy="58" r="17" fill="#111c27" stroke="#3b4a58"/>
  <text x="27" y="48" font-size="30" fill="#fff">‹</text>
  
  <rect x="16" y="112" width="358" height="146" rx="8" fill="#fff" filter="url(#shadow)"/>
  <text x="32" y="132" font-size="20" font-weight="900" fill="#07131d">基础开关</text>
  <text x="32" y="174" font-size="18" font-weight="800" fill="#07131d">2分音效</text>
  <rect x="314" y="170" width="44" height="24" rx="12" fill="#00c68a"/><circle cx="346" cy="182" r="11" fill="#fff"/>
  <text x="32" y="214" font-size="18" font-weight="800" fill="#07131d">3分音效</text>
  <rect x="314" y="210" width="44" height="24" rx="12" fill="#00c68a"/><circle cx="346" cy="222" r="11" fill="#fff"/>
  <rect x="16" y="278" width="358" height="360" rx="8" fill="#fff" filter="url(#shadow)"/>
  <text x="32" y="298" font-size="20" font-weight="900" fill="#07131d">音效类型与播放策略</text>
  <text x="32" y="340" font-size="18" font-weight="900" fill="#07131d">休息音乐</text>
  <text x="32" y="366" font-size="13" fill="#647184">当前：Remember the Name</text>
  <rect x="218" y="336" width="64" height="34" rx="7" fill="#ff4d18"/><text x="250" y="344" text-anchor="middle" font-size="14" font-weight="800" fill="#fff">随机</text>
  <rect x="292" y="336" width="64" height="34" rx="7" fill="#fff" stroke="#dbe3ee"/><text x="324" y="344" text-anchor="middle" font-size="14" font-weight="800">固定</text>
  <text x="32" y="418" font-size="18" font-weight="900" fill="#07131d">进攻音乐</text>
  <text x="32" y="444" font-size="13" fill="#647184">当前：云端随机 3 首</text>
  <rect x="218" y="414" width="64" height="34" rx="7" fill="#ff4d18"/><text x="250" y="422" text-anchor="middle" font-size="14" font-weight="800" fill="#fff">随机</text>
  <rect x="292" y="414" width="64" height="34" rx="7" fill="#fff" stroke="#dbe3ee"/><text x="324" y="422" text-anchor="middle" font-size="14" font-weight="800">固定</text>
  <text x="32" y="496" font-size="18" font-weight="900" fill="#07131d">防守音乐</text>
  <text x="32" y="522" font-size="13" fill="#647184">当前：云端随机 3 首</text>
  <rect x="218" y="492" width="64" height="34" rx="7" fill="#ff4d18"/><text x="250" y="500" text-anchor="middle" font-size="14" font-weight="800" fill="#fff">随机</text>
  <rect x="292" y="492" width="64" height="34" rx="7" fill="#fff" stroke="#dbe3ee"/><text x="324" y="500" text-anchor="middle" font-size="14" font-weight="800">固定</text>
  <text x="32" y="574" font-size="18" font-weight="900" fill="#07131d">播报语音包</text>
  <text x="32" y="600" font-size="13" fill="#647184">赛小智 / 赛小瑜 / 赛小萌</text>
  <rect x="32" y="660" width="326" height="48" rx="8" fill="url(#orangeGrad)"/>
  <text x="195" y="674" text-anchor="middle" class="btnText" fill="#fff">保存设置</text>

  <rect y="786" width="390" height="58" fill="#fff"/>
  <line x1="0" y1="786" x2="390" y2="786" stroke="#dbe3ee"/>
  <text x="53" y="809" text-anchor="middle" font-size="13" fill="#ff4d18">首页</text>
  <text x="145" y="809" text-anchor="middle" font-size="13" fill="#647184">赛事</text>
  <text x="240" y="809" text-anchor="middle" font-size="13" fill="#647184">球员</text>
  <text x="334" y="809" text-anchor="middle" font-size="13" fill="#647184">我的</text>
  <rect x="143" y="831" width="104" height="4" rx="2" fill="#111"/>
  
</svg>